<?xml version="1.0" encoding="utf-8"?>
<!-- Generator: Adobe Illustrator 22.1.0, SVG Export Plug-In . SVG Version: 6.00 Build 0)  -->
<svg version="1.1" id="Camada_1" xmlns="http://www.w3.org/2000/svg" xmlns:xlink="http://www.w3.org/1999/xlink" x="0px" y="0px"
	 viewBox="0 0 470 60.5" style="enable-background:new 0 0 470 60.5;" xml:space="preserve">
<style type="text/css">
	.st0{fill:#FFFFFF;}
</style>
<title>Prancheta 1</title>
<path class="st0" d="M65.7,59.5H53.8c-1.1,0.1-2-0.6-2.4-1.6l-3.3-8.2H27.2l-3.3,8.2c-0.3,1-1.3,1.7-2.4,1.6H9.8
	c-1.6,0-2.2-0.9-1.6-2.4l24.3-54c0.4-1,1.3-1.6,2.4-1.6h6c1.1-0.1,2,0.6,2.4,1.6l24,54C68,58.6,67.3,59.5,65.7,59.5z M31,37.9h13.3
	l-6.6-15.7L31,37.9z"/>
<path class="st0" d="M117.2,30.5c0,17.4-12.2,29-32.2,29H64.1c-1,0.1-1.9-0.6-2.1-1.7c0-0.1,0-0.3,0-0.4V3.6c-0.1-1,0.6-1.9,1.7-2.1
	c0.1,0,0.3,0,0.4,0h20.9C105,1.6,117.2,13.1,117.2,30.5z M101.1,30.7c0-9.1-5.5-15.3-15.2-15.3h-8.2v30.3h8.2
	C95.6,45.7,101.1,39.7,101.1,30.7z"/>
<path class="st0" d="M156.7,48v9.5c0.1,1-0.6,1.9-1.7,2.1c-0.1,0-0.3,0-0.4,0h-37.9c-1,0.1-1.9-0.6-2.1-1.7c0-0.1,0-0.3,0-0.4V3.6
	c-0.1-1,0.6-1.9,1.7-2.1c0.1,0,0.3,0,0.4,0h37.8c1-0.1,1.9,0.6,2.1,1.7c0,0.1,0,0.3,0,0.4v9.6c0.1,1-0.6,1.9-1.7,2.1
	c-0.1,0-0.3,0-0.4,0h-24.2v8.2h21c1-0.1,1.9,0.6,2.1,1.7c0,0.1,0,0.3,0,0.4v9.3c0.1,1-0.6,1.9-1.7,2.1c-0.1,0-0.3,0-0.4,0h-21v9
	h24.4c1-0.1,1.9,0.6,2.1,1.7C156.7,47.7,156.7,47.9,156.7,48z"/>
<path class="st0" d="M202,59.5h-13.2c-1,0.1-2-0.5-2.5-1.3l-8.7-13.5h-6.7v12.8c0.1,1-0.6,1.9-1.7,2.1c-0.1,0-0.3,0-0.4,0h-11.3
	c-1,0.1-1.9-0.6-2.1-1.7c0-0.1,0-0.3,0-0.4V3.6c-0.1-1,0.6-1.9,1.7-2.1c0.1,0,0.3,0,0.4,0h22.3c14.9,0,23.7,9.4,23.7,21.9
	c0.2,7.6-4.1,14.7-11,18L203.3,57C204.4,58.4,203.7,59.5,202,59.5z M170.9,31.6h7.7c5.7,0,9.2-3.6,9.2-8.3c0-4.9-3.4-8.6-9.5-8.6
	h-7.4V31.6z"/>
<path class="st0" d="M248.7,3.6v9.7c0.1,1-0.6,1.9-1.7,2.1c-0.1,0-0.3,0-0.4,0h-16.7v42c0.1,1-0.6,1.9-1.7,2.1c-0.1,0-0.3,0-0.4,0
	h-11.6c-1,0.1-1.9-0.6-2.1-1.7c0-0.1,0-0.3,0-0.4v-42h-16.5c-1,0.1-1.9-0.6-2.1-1.7c0-0.1,0-0.3,0-0.4V3.7c-0.1-1,0.6-1.9,1.7-2.1
	c0.1,0,0.3,0,0.4,0h49c1-0.1,1.9,0.7,2,1.7C248.7,3.4,248.7,3.5,248.7,3.6z"/>
<path class="st0" d="M239.4,30.3c0-17.1,13.3-30.1,31.2-30.1c17.8,0,30.9,12.6,30.9,30.1c0,17.3-13.1,30.2-30.9,30.2
	C252.7,60.5,239.4,47.3,239.4,30.3z M285.5,30.3c0-9.3-6.3-15.8-14.8-15.8s-15.2,6.6-15.2,15.8c0,9.1,6.4,15.9,15.2,15.9
	S285.5,39.4,285.5,30.3z"/>
<path class="st0" d="M345.6,59.5h-13.3c-1,0.1-2-0.5-2.6-1.3l-8.7-13.5h-6.7v12.8c0.1,1-0.6,1.9-1.7,2.1c-0.1,0-0.3,0-0.4,0h-11.3
	c-1,0.1-1.9-0.6-2.1-1.7c0-0.1,0-0.3,0-0.4V3.6c-0.1-1,0.6-1.9,1.7-2.1c0.1,0,0.3,0,0.4,0h22.3c14.9,0,23.7,9.4,23.7,21.9
	c0.2,7.6-4.1,14.7-11,18L347,57C348,58.4,347.3,59.5,345.6,59.5z M314.5,31.6h7.7c5.7,0,9.2-3.6,9.2-8.3c0-4.9-3.4-8.6-9.5-8.6h-7.4
	V31.6z"/>
<path class="st0" d="M346,57.4V3.6c-0.1-1,0.6-1.9,1.7-2.1c0.1,0,0.3,0,0.4,0h11.7c1-0.1,2,0.6,2.1,1.7c0,0.1,0,0.3,0,0.4v53.8
	c0.1,1-0.6,1.9-1.7,2.1c-0.1,0-0.3,0-0.4,0H348c-1,0.1-1.9-0.7-2-1.7C346,57.7,346,57.6,346,57.4z"/>
<path class="st0" d="M413.9,59.5h-12c-1.1,0.1-2-0.6-2.4-1.6l-3.3-8.2h-20.8l-3.3,8.2c-0.3,1-1.3,1.7-2.4,1.6h-11.8
	c-1.6,0-2.2-0.9-1.6-2.4l24.3-54c0.4-1,1.3-1.6,2.4-1.6h6c1.1-0.1,2,0.6,2.4,1.6l24,54C416.1,58.6,415.5,59.5,413.9,59.5z
	 M379.2,37.9h13.3l-6.6-15.7L379.2,37.9z"/>
<path class="st0" d="M410.2,57.4V3.6c-0.1-1,0.6-1.9,1.7-2.1c0.1,0,0.3,0,0.4,0h11.7c1-0.1,2,0.6,2.1,1.7c0,0.1,0,0.3,0,0.4v53.8
	c0.1,1-0.6,1.9-1.7,2.1c-0.1,0-0.3,0-0.4,0h-11.7c-1,0.1-1.9-0.6-2.1-1.7C410.2,57.7,410.2,57.6,410.2,57.4z"/>
<path class="st0" d="M423.5,54.2c-1-0.5-1.3-1.8-0.8-2.7c0-0.1,0.1-0.1,0.1-0.2l5.3-8.7c0.4-0.9,1.4-1.3,2.2-0.9
	c0.2,0.1,0.4,0.2,0.6,0.4c4.4,3.3,9.8,5,15.3,4.8c3.8,0,5.9-1.5,5.9-4c0-3-2.2-4.1-10.3-6.5c-12.5-3.7-17.4-8.5-17.4-17.2
	c0-11,9-18.2,22.8-18.2c6.8-0.1,13.6,1.7,19.4,5.3c0.9,0.5,1.3,1.6,0.8,2.5c0,0.1-0.1,0.2-0.2,0.3l-4.6,8.2
	c-0.7,1.2-1.6,1.4-2.8,0.7c-3.9-2.3-8.4-3.5-12.9-3.6c-4.3,0-6.5,1.1-6.5,3.5c0,2.2,1.6,3.2,10,5.8c12.2,3.6,17.4,9,17.4,17.8
	c0,12-8.3,18.9-22.6,18.9C437.5,60.4,430,58.3,423.5,54.2z"/>
</svg>
