<svg id="Camada_1" data-name="Camada 1" xmlns="http://www.w3.org/2000/svg" viewBox="0 0 672.76 378.24"><defs><style>.cls-1{fill:#fffff7;}</style></defs><title>Prancheta 1</title><path class="cls-1" d="M253.15,189.67v92.61c0,4-1.47,7.72-4,9.55-11,9.19-43.37,29.77-100,29.77C68.3,321.6,11,263.91,11,190.41S68.3,56.64,152.45,56.64c44.1,0,71.67,11.39,87.83,21,4.78,2.94,5.52,7.35,2.95,12.49l-21.69,39.69c-2.94,5.15-7,6.62-12.49,3.68-13.23-7.35-27.93-12.5-53.29-12.5-43,0-72,26.46-72,69.46,0,41.52,30.87,68.72,69.83,68.72,12.12,0,24.62-1.47,35.28-6.25V189.67c0-5.88,3.3-9.18,9.18-9.18H244C249.84,180.49,253.15,183.79,253.15,189.67Z"/><path class="cls-1" d="M226.68,188.94c0-88.94,47.41-132.3,116.86-132.3s114.66,47.41,115,132.66c.37,84.53-45.57,132.3-115,132.3S226.68,273.83,226.68,188.94Zm163.9,0c0-51.45-17.64-73.87-46.67-73.87-28.3,0-48.88,17.27-48.88,74.23,0,51.09,20.22,72.77,50,72.77C372.57,262.07,390.58,241.12,390.58,188.94Z"/><path class="cls-1" d="M429.9,188.94c0-88.94,47.41-132.3,116.86-132.3s114.66,47.41,115,132.66c.36,84.53-45.57,132.3-115,132.3S429.9,273.83,429.9,188.94Zm163.9,0c0-51.45-17.64-73.87-46.67-73.87-28.3,0-48.88,17.27-48.88,74.23,0,51.09,20.21,72.77,50,72.77C575.79,262.07,593.8,241.12,593.8,188.94Z"/><ellipse class="cls-1" cx="351.26" cy="190.3" rx="15.5" ry="22.5"/><ellipse class="cls-1" cx="534.26" cy="190.3" rx="15.5" ry="22.5"/></svg>